<svg width="33" height="32" viewBox="0 0 33 32" fill="none" xmlns="http://www.w3.org/2000/svg">
<path d="M26.7119 21.0231C26.7214 20.4031 26.7141 19.7831 26.7141 19.0928C26.3581 19.4596 26.0233 19.7499 25.7425 20.0948C25.5802 20.1925 25.5415 20.3396 25.5409 20.5227C25.5398 21.2803 25.6128 22.0436 25.51 22.7945C25.2977 24.3462 24.0374 25.465 22.4553 25.5301C21.7921 25.5576 21.1271 25.5357 20.4627 25.5369C20.3616 25.5374 20.26 25.5195 20.1752 25.6076C19.8354 25.9598 19.4911 26.308 19.1165 26.6904C20.3869 26.659 21.6191 26.7387 22.8496 26.6365C23.0164 26.623 23.1832 26.5882 23.3466 26.5512C25.1826 26.1327 26.6344 24.4153 26.6563 22.6389C26.6669 22.6131 26.6782 22.5884 26.6782 22.5592V22.512C26.754 22.0178 26.7046 21.519 26.7119 21.0231Z" fill="white"/>
<path d="M32.0405 15.3265C32.0405 14.6587 31.9692 13.9988 31.8243 13.3468C31.8176 13.2727 31.817 13.198 31.803 13.125C31.3671 10.8257 30.4691 8.72186 29.119 6.81235C28.3613 5.7419 27.5009 4.76243 26.485 3.92731C26.4181 3.86328 26.3547 3.79532 26.2839 3.73692C23.4719 1.41855 20.2487 0.165578 16.6044 0.0145014C15.5862 -0.0276201 14.5702 0.0173095 13.5655 0.21163C13.4818 0.21837 13.397 0.21837 13.315 0.233534C11.1696 0.638462 9.15396 1.38092 7.33262 2.59963C3.43217 5.20892 1.01889 8.81958 0.227007 13.4479C-0.306533 16.5666 0.10345 19.592 1.42494 22.4877C4.42175 29.0542 11.6161 33.3888 19.4086 31.5916C25.656 30.1505 29.6755 26.1809 31.5306 20.0452C31.9945 18.5109 32.1197 16.9266 32.0405 15.3265ZM30.3596 19.7083C28.6618 25.174 25.1444 28.9076 19.5563 30.2679C13.329 31.7831 8.17786 29.7495 4.23416 24.7376C2.19043 22.1407 1.15761 19.1405 1.21826 15.8224C1.29408 11.6973 2.90425 8.21303 5.85725 5.36225C7.85774 3.43083 10.2367 2.15932 12.9623 1.55839C12.9977 1.55053 13.0302 1.53143 13.0645 1.51739C13.0802 1.53199 13.0965 1.54323 13.1134 1.55165C13.1285 1.53256 13.1448 1.51627 13.1622 1.50391C13.8328 1.41293 14.5006 1.29611 15.1779 1.25961C19.03 1.05518 22.4312 2.21212 25.4157 4.63944C26.3777 5.42178 27.2331 6.31588 27.9519 7.31331C29.4335 9.37109 30.4495 11.6367 30.7606 14.1847C30.8729 15.1013 30.8875 16.0184 30.8606 16.9384H30.8589C30.8589 16.9384 30.8538 16.9412 30.851 16.9434C30.8538 16.9473 30.8566 16.9513 30.86 16.9546C30.7583 17.8847 30.6382 18.8125 30.3596 19.7083Z" fill="white"/>
<path d="M28.4876 15.8248C24.4041 11.7732 20.3183 7.72396 16.2387 3.6685C16.0814 3.51237 16.0039 3.48541 15.8298 3.65951C12.8459 6.64115 9.85417 9.61493 6.86354 12.5904C5.78354 13.6648 4.70186 14.738 3.62074 15.8119C3.49213 15.8933 3.38655 15.9781 3.57469 16.1084C3.74037 16.2662 3.90605 16.4235 4.07173 16.5813C4.14698 16.6633 4.21887 16.7486 4.2975 16.8273C8.12887 20.6384 11.9631 24.4479 15.7894 28.2652C15.9781 28.4534 16.0691 28.491 16.2808 28.2787C18.4722 26.0805 20.6788 23.8969 22.8787 21.7066C23.7857 20.8035 24.6854 19.8937 25.5885 18.9867C26.5759 18.0179 27.5615 17.0474 28.5522 16.0826C28.6977 15.9405 28.5556 15.8927 28.4876 15.8248ZM16.6436 25.9822V23.4021C16.6425 22.476 16.6425 21.5494 16.6414 20.6233V20.6025C16.6408 20.1234 16.6408 19.6449 16.6397 19.1664V19.1462C16.6391 18.6143 16.6385 18.0825 16.6374 17.5506V17.545C16.6374 17.331 16.6369 17.1176 16.6363 16.9036V16.8806C16.6363 16.7396 16.6425 16.6548 16.8463 16.6554C18.8418 16.6616 20.8372 16.6627 22.8321 16.6633H22.8489C23.8402 16.6633 24.8315 16.6633 25.8227 16.6638C25.8575 16.6638 25.8924 16.67 25.9901 16.6784C22.8894 19.8089 19.7994 22.8798 16.6436 25.9822ZM16.6459 6.05819C16.7705 6.09582 16.8362 6.18736 16.9115 6.26094C17.9342 7.26287 18.9552 8.26704 19.9774 9.26954C20.0437 9.33468 20.1155 9.39365 20.1846 9.45543C20.2178 9.48801 20.2509 9.52002 20.284 9.55203C20.4037 9.70255 20.5379 9.83902 20.6923 9.95415C20.7109 10.0036 20.7446 10.0378 20.7945 10.0552C20.8198 10.112 20.8603 10.153 20.9175 10.1766C21.3758 10.6416 21.8296 11.1105 22.2924 11.5711C23.2915 12.564 24.2951 13.553 25.2965 14.5432C25.3184 14.5993 25.3571 14.6392 25.4133 14.6611C25.4318 14.7139 25.4672 14.7498 25.52 14.7684C25.5419 14.8251 25.5807 14.8644 25.6374 14.8863C25.6565 14.9385 25.6919 14.9739 25.7441 14.993C25.8059 15.0711 25.8677 15.1486 25.9283 15.225C25.8688 15.2997 25.798 15.2676 25.7385 15.2676C22.8096 15.2682 19.8802 15.2643 16.9514 15.2704C16.72 15.271 16.6357 15.2384 16.6369 14.9734C16.6414 13.4895 16.6419 12.0052 16.6408 10.5214V10.5057C16.6447 10.3018 16.6492 10.1002 16.6593 9.89631C16.6683 9.70592 16.6537 9.51328 16.6402 9.32008V9.30492C16.6391 8.27435 16.6374 7.24433 16.6369 6.21376C16.6369 6.16883 16.6419 6.12334 16.6459 6.05819ZM15.3058 6.16209C15.3406 6.22668 15.353 6.30081 15.3496 6.38955C15.3479 6.43279 15.3451 6.4912 15.3592 6.53613V7.16009C15.3171 7.22861 15.3491 7.32689 15.3491 7.40103C15.3429 9.94629 15.344 12.4916 15.344 15.0368C15.344 15.0784 15.3463 15.1194 15.3513 15.1587C15.3339 15.2306 15.2834 15.2733 15.1379 15.2727C12.2107 15.2637 9.28356 15.2665 6.35584 15.2665H6.14298C9.20044 12.1961 12.2141 9.18529 15.3058 6.16209ZM15.3603 25.78C15.3603 25.8048 15.3519 25.8289 15.339 25.9036C12.2253 22.8546 9.17685 19.7915 6.09019 16.661H7.71664C10.1765 16.661 12.637 16.6621 15.0975 16.6593C15.2626 16.6593 15.367 16.6526 15.3665 16.8834C15.3575 19.8488 15.3609 22.8141 15.3603 25.78Z" fill="white"/>
<path d="M11.58 25.5402C10.9724 25.5425 10.3641 25.5464 9.7565 25.5329C7.90427 25.4908 6.57436 24.1469 6.55133 22.2974C6.54403 21.6898 6.54908 21.0821 6.54684 20.4739C6.54684 20.3829 6.56481 20.2863 6.48731 20.2105C6.12899 19.8611 5.77236 19.5112 5.37305 19.1204C5.42247 20.3037 5.34497 21.4258 5.42023 22.5474C5.57692 24.873 7.32637 26.5938 9.65372 26.6663C10.7095 26.6989 11.7671 26.6758 12.824 26.677C12.8656 26.677 12.9189 26.6927 12.9459 26.6242C12.61 26.3068 12.2691 25.9895 11.9344 25.6655C11.8316 25.5655 11.7182 25.5397 11.58 25.5402Z" fill="white"/>
<path d="M20.5154 6.46424C21.1051 6.4575 21.6943 6.4547 22.2834 6.46649C23.9671 6.49906 25.3611 7.76159 25.5442 9.4369C25.6172 10.1069 25.5576 10.7831 25.5678 11.4559C25.5689 11.548 25.5369 11.6497 25.6003 11.7289C25.9328 12.1389 26.3203 12.4938 26.7185 12.8521C26.7039 11.616 26.8303 10.3911 26.6455 9.17631C26.3473 7.21176 24.8214 5.6454 22.9433 5.39773C21.6898 5.23205 20.4267 5.37301 19.1681 5.32022C19.491 5.66225 19.7977 5.97788 20.0931 6.30306C20.2121 6.43392 20.3464 6.46649 20.5154 6.46424Z" fill="white"/>
<path d="M6.40023 11.826C6.51312 11.7098 6.5485 11.5834 6.54569 11.4239C6.53615 10.8909 6.53558 10.358 6.53952 9.82498C6.55468 7.91322 7.94918 6.50131 9.86262 6.46593C10.4422 6.45582 11.0218 6.46761 11.6014 6.46705C11.6845 6.46705 11.8002 6.48727 11.8457 6.4429C12.2107 6.08066 12.5629 5.70606 12.9111 5.34213C11.8086 5.34213 10.6949 5.29495 9.5863 5.35224C7.39149 5.46625 5.65833 7.15785 5.43032 9.34592C5.31013 10.5023 5.40897 11.6626 5.42526 12.8555C5.74988 12.5118 6.07112 12.1653 6.40023 11.826Z" fill="white"/>
</svg>
